
<global>
amp_veltrack=0
ampeg_release=0.35
</global>

<group>
group_label=PP
xf_cccurve=gain
xfin_hicc1=42
xfout_hicc1=85
xfout_locc1=42

<region>
end=374271
hikey=g6
hivel=127
lokey=f#6
loop_end=298408
loop_mode=loop_continuous
loop_start=76346
loop_xfade=22060
lovel=0
offset=8725
pitch_keycenter=g6
sample=Violins2_sul_tasto_PP_G6.opus
</region>

<region>
end=373438
hikey=g5
hivel=127
lokey=f#5
loop_end=297744
loop_mode=loop_continuous
loop_start=76176
loop_xfade=22011
lovel=0
offset=9145
pitch_keycenter=g5
sample=Violins2_sul_tasto_PP_G5.opus
</region>

<region>
end=371964
hikey=g4
hivel=127
lokey=f#4
loop_end=296569
loop_mode=loop_continuous
loop_start=75875
loop_xfade=21924
lovel=0
offset=4363
pitch_keycenter=g4
sample=Violins2_sul_tasto_PP_G4.opus
</region>

<region>
end=371650
hivel=127
key=g3
loop_end=296318
loop_mode=loop_continuous
loop_start=75811
loop_xfade=21905
lovel=0
sample=Violins2_sul_tasto_PP_G3.opus
</region>

<region>
end=374400
hikey=f6
hivel=127
lokey=e6
loop_end=298511
loop_mode=loop_continuous
loop_start=76372
loop_xfade=22067
lovel=0
offset=9103
pitch_keycenter=f6
sample=Violins2_sul_tasto_PP_F6.opus
</region>

<region>
end=374399
hikey=f5
hivel=127
lokey=e5
loop_end=298510
loop_mode=loop_continuous
loop_start=76372
loop_xfade=22067
lovel=0
offset=7943
pitch_keycenter=f5
sample=Violins2_sul_tasto_PP_F5.opus
</region>

<region>
end=345934
hikey=f4
hivel=127
lokey=e4
loop_end=275815
loop_mode=loop_continuous
loop_start=70566
loop_xfade=20390
lovel=0
offset=6762
pitch_keycenter=f4
sample=Violins2_sul_tasto_PP_F4.opus
</region>

<region>
end=374400
hikey=d#6
hivel=127
lokey=d6
loop_end=298511
loop_mode=loop_continuous
loop_start=76372
loop_xfade=22067
lovel=0
offset=9103
pitch_keycenter=d#6
sample=Violins2_sul_tasto_PP_D#6.opus
</region>

<region>
end=374399
hikey=d#5
hivel=127
lokey=d5
loop_end=298510
loop_mode=loop_continuous
loop_start=76372
loop_xfade=22067
lovel=0
offset=13685
pitch_keycenter=d#5
sample=Violins2_sul_tasto_PP_D#5.opus
</region>

<region>
end=328739
hikey=d#4
hivel=127
lokey=d4
loop_end=262105
loop_mode=loop_continuous
loop_start=67058
loop_xfade=19376
lovel=0
pitch_keycenter=d#4
sample=Violins2_sul_tasto_PP_D#4.opus
</region>

<region>
end=372172
hikey=c#6
hivel=127
lokey=c6
loop_end=296735
loop_mode=loop_continuous
loop_start=75918
loop_xfade=21936
lovel=0
offset=9048
pitch_keycenter=c#6
sample=Violins2_sul_tasto_PP_C#6.opus
</region>

<region>
end=357051
hikey=c#5
hivel=127
lokey=c5
loop_end=284679
loop_mode=loop_continuous
loop_start=72833
loop_xfade=21045
lovel=0
pitch_keycenter=c#5
sample=Violins2_sul_tasto_PP_C#5.opus
</region>

<region>
end=304318
hikey=c#4
hivel=127
lokey=c4
loop_end=242634
loop_mode=loop_continuous
loop_start=62076
loop_xfade=17937
lovel=0
pitch_keycenter=c#4
sample=Violins2_sul_tasto_PP_C#4.opus
</region>

<region>
end=374400
hikey=E7
hivel=127
lokey=a#6
loop_end=298511
loop_mode=loop_continuous
loop_start=76372
loop_xfade=22067
lovel=0
offset=8459
pitch_keycenter=B6
sample=Violins2_sul_tasto_PP_B6.opus
</region>

<region>
end=374399
hikey=b5
hivel=127
lokey=a#5
loop_end=298510
loop_mode=loop_continuous
loop_start=76372
loop_xfade=22067
lovel=0
offset=9103
pitch_keycenter=b5
sample=Violins2_sul_tasto_PP_B5.opus
</region>

<region>
end=373495
hikey=b4
hivel=127
lokey=a#4
loop_end=297789
loop_mode=loop_continuous
loop_start=76188
loop_xfade=22014
lovel=0
offset=5595
pitch_keycenter=b4
sample=Violins2_sul_tasto_PP_B4.opus
</region>

<region>
end=360824
hikey=b3
hivel=127
lokey=a#3
loop_end=287687
loop_mode=loop_continuous
loop_start=73603
loop_xfade=21267
lovel=0
pitch_keycenter=b3
sample=Violins2_sul_tasto_PP_B3.opus
</region>

<region>
end=374400
hikey=a6
hivel=127
lokey=g#6
loop_end=298511
loop_mode=loop_continuous
loop_start=76372
loop_xfade=22067
lovel=0
offset=8459
pitch_keycenter=a6
sample=Violins2_sul_tasto_PP_A6.opus
</region>

<region>
end=374399
hikey=a5
hivel=127
lokey=g#5
loop_end=298510
loop_mode=loop_continuous
loop_start=76372
loop_xfade=22067
lovel=0
offset=9103
pitch_keycenter=a5
sample=Violins2_sul_tasto_PP_A5.opus
</region>

<region>
end=361317
hikey=a4
hivel=127
lokey=g#4
loop_end=288080
loop_mode=loop_continuous
loop_start=73703
loop_xfade=21296
lovel=0
pitch_keycenter=a4
sample=Violins2_sul_tasto_PP_A4.opus
</region>

<region>
end=351329
hikey=a3
hivel=127
lokey=g#3
loop_end=280116
loop_mode=loop_continuous
loop_start=71666
loop_xfade=20708
lovel=0
pitch_keycenter=a3
sample=Violins2_sul_tasto_PP_A3.opus
</region>
</group>

<group>
group_label=MF
xf_cccurve=gain
xfin_hicc1=85
xfin_locc1=42
xfout_hicc1=127
xfout_locc1=85

<region>
end=361995
hikey=g6
hivel=127
lokey=f#6
loop_end=288620
loop_mode=loop_continuous
loop_start=73842
loop_xfade=21336
lovel=0
pitch_keycenter=g6
sample=Violins2_sul_tasto_MF_G6.opus
</region>

<region>
end=325881
hikey=g5
hivel=127
lokey=f#5
loop_end=259827
loop_mode=loop_continuous
loop_start=66475
loop_xfade=19208
lovel=0
pitch_keycenter=g5
sample=Violins2_sul_tasto_MF_G5.opus
</region>

<region>
end=332009
hikey=g4
hivel=127
lokey=f#4
loop_end=264712
loop_mode=loop_continuous
loop_start=67725
loop_xfade=19569
lovel=0
pitch_keycenter=g4
sample=Violins2_sul_tasto_MF_G4.opus
</region>

<region>
end=353615
hivel=127
key=g3
loop_end=281939
loop_mode=loop_continuous
loop_start=72132
loop_xfade=20842
lovel=0
sample=Violins2_sul_tasto_MF_G3.opus
</region>

<region>
end=327294
hikey=f6
hivel=127
lokey=e6
loop_end=260953
loop_mode=loop_continuous
loop_start=66763
loop_xfade=19291
lovel=0
pitch_keycenter=f6
sample=Violins2_sul_tasto_MF_F6.opus
</region>

<region>
end=369778
hikey=f5
hivel=127
lokey=e5
loop_end=294826
loop_mode=loop_continuous
loop_start=75429
loop_xfade=21795
lovel=0
pitch_keycenter=f5
sample=Violins2_sul_tasto_MF_F5.opus
</region>

<region>
end=332668
hikey=f4
hivel=127
lokey=e4
loop_end=265238
loop_mode=loop_continuous
loop_start=67859
loop_xfade=19608
lovel=0
pitch_keycenter=f4
sample=Violins2_sul_tasto_MF_F4.opus
</region>

<region>
end=367246
hikey=d#6
hivel=127
lokey=d6
loop_end=292807
loop_mode=loop_continuous
loop_start=74913
loop_xfade=21646
lovel=0
pitch_keycenter=d#6
sample=Violins2_sul_tasto_MF_D#6.opus
</region>

<region>
end=364175
hikey=d#5
hivel=127
lokey=d5
loop_end=290359
loop_mode=loop_continuous
loop_start=74286
loop_xfade=21465
lovel=0
pitch_keycenter=d#5
sample=Violins2_sul_tasto_MF_D#5.opus
</region>

<region>
end=324237
hikey=d#4
hivel=127
lokey=d4
loop_end=258516
loop_mode=loop_continuous
loop_start=66140
loop_xfade=19111
lovel=0
pitch_keycenter=d#4
sample=Violins2_sul_tasto_MF_D#4.opus
</region>

<region>
end=331236
hikey=c#6
hivel=127
lokey=c6
loop_end=264096
loop_mode=loop_continuous
loop_start=67567
loop_xfade=19523
lovel=0
pitch_keycenter=c#6
sample=Violins2_sul_tasto_MF_C#6.opus
</region>

<region>
end=336872
hikey=c#5
hivel=127
lokey=c5
loop_end=268590
loop_mode=loop_continuous
loop_start=68717
loop_xfade=19855
lovel=0
pitch_keycenter=c#5
sample=Violins2_sul_tasto_MF_C#5.opus
</region>

<region>
end=323967
hikey=c#4
hivel=127
lokey=c4
loop_end=258300
loop_mode=loop_continuous
loop_start=66085
loop_xfade=19095
lovel=0
pitch_keycenter=c#4
sample=Violins2_sul_tasto_MF_C#4.opus
</region>

<region>
end=374400
hikey=E7
hivel=127
lokey=a#6
loop_end=298511
loop_mode=loop_continuous
loop_start=76372
loop_xfade=22067
lovel=0
pitch_keycenter=B6
sample=Violins2_sul_tasto_MF_B6.opus
</region>

<region>
end=359880
hikey=b5
hivel=127
lokey=a#5
loop_end=286934
loop_mode=loop_continuous
loop_start=73410
loop_xfade=21212
lovel=0
pitch_keycenter=b5
sample=Violins2_sul_tasto_MF_B5.opus
</region>

<region>
end=329230
hikey=b4
hivel=127
lokey=a#4
loop_end=262497
loop_mode=loop_continuous
loop_start=67158
loop_xfade=19405
lovel=0
pitch_keycenter=b4
sample=Violins2_sul_tasto_MF_B4.opus
</region>

<region>
end=327088
hikey=b3
hivel=127
lokey=a#3
loop_end=260789
loop_mode=loop_continuous
loop_start=66721
loop_xfade=19279
lovel=0
pitch_keycenter=b3
sample=Violins2_sul_tasto_MF_B3.opus
</region>

<region>
end=360770
hikey=a6
hivel=127
lokey=g#6
loop_end=287644
loop_mode=loop_continuous
loop_start=73592
loop_xfade=21264
lovel=0
pitch_keycenter=a6
sample=Violins2_sul_tasto_MF_A6.opus
</region>

<region>
end=323217
hikey=a5
hivel=127
lokey=g#5
loop_end=257702
loop_mode=loop_continuous
loop_start=65932
loop_xfade=19050
lovel=0
pitch_keycenter=a5
sample=Violins2_sul_tasto_MF_A5.opus
</region>

<region>
end=320537
hikey=a4
hivel=127
lokey=g#4
loop_end=255566
loop_mode=loop_continuous
loop_start=65385
loop_xfade=18893
lovel=0
pitch_keycenter=a4
sample=Violins2_sul_tasto_MF_A4.opus
</region>

<region>
end=338227
hikey=a3
hivel=127
lokey=g#3
loop_end=269670
loop_mode=loop_continuous
loop_start=68993
loop_xfade=19935
lovel=0
pitch_keycenter=a3
sample=Violins2_sul_tasto_MF_A3.opus
</region>
</group>

<group>
group_label=FF
xf_cccurve=gain
xfin_hicc1=127
xfin_locc1=85
xfout_hicc1=127
xfout_locc1=127

<region>
end=327855
hikey=g6
hivel=127
lokey=f#6
loop_end=261400
loop_mode=loop_continuous
loop_start=66878
loop_xfade=19324
lovel=0
pitch_keycenter=g6
sample=Violins2_sul_tasto_FF_G6.opus
</region>

<region>
end=322297
hikey=g5
hivel=127
lokey=f#5
loop_end=256969
loop_mode=loop_continuous
loop_start=65744
loop_xfade=18996
lovel=0
pitch_keycenter=g5
sample=Violins2_sul_tasto_FF_G5.opus
</region>

<region>
end=332343
hikey=g4
hivel=127
lokey=f#4
loop_end=264979
loop_mode=loop_continuous
loop_start=67793
loop_xfade=19589
lovel=0
pitch_keycenter=g4
sample=Violins2_sul_tasto_FF_G4.opus
</region>

<region>
end=326898
hivel=127
key=g3
loop_end=260637
loop_mode=loop_continuous
loop_start=66682
loop_xfade=19268
lovel=0
sample=Violins2_sul_tasto_FF_G3.opus
</region>

<region>
end=326957
hikey=f6
hivel=127
lokey=e6
loop_end=260684
loop_mode=loop_continuous
loop_start=66694
loop_xfade=19271
lovel=0
pitch_keycenter=f6
sample=Violins2_sul_tasto_FF_F6.opus
</region>

<region>
end=315807
hikey=f5
hivel=127
lokey=e5
loop_end=251794
loop_mode=loop_continuous
loop_start=64420
loop_xfade=18614
lovel=0
pitch_keycenter=f5
sample=Violins2_sul_tasto_FF_F5.opus
</region>

<region>
end=328379
hikey=f4
hivel=127
lokey=e4
loop_end=261818
loop_mode=loop_continuous
loop_start=66985
loop_xfade=19355
lovel=0
pitch_keycenter=f4
sample=Violins2_sul_tasto_FF_F4.opus
</region>

<region>
end=321595
hikey=d#6
hivel=127
lokey=d6
loop_end=256409
loop_mode=loop_continuous
loop_start=65601
loop_xfade=18955
lovel=0
pitch_keycenter=d#6
sample=Violins2_sul_tasto_FF_D#6.opus
</region>

<region>
end=331062
hikey=d#5
hivel=127
lokey=d5
loop_end=263957
loop_mode=loop_continuous
loop_start=67532
loop_xfade=19513
lovel=0
pitch_keycenter=d#5
sample=Violins2_sul_tasto_FF_D#5.opus
</region>

<region>
end=330375
hikey=d#4
hivel=127
lokey=d4
loop_end=263410
loop_mode=loop_continuous
loop_start=67392
loop_xfade=19472
lovel=0
pitch_keycenter=d#4
sample=Violins2_sul_tasto_FF_D#4.opus
</region>

<region>
end=323686
hikey=c#6
hivel=127
lokey=c6
loop_end=258076
loop_mode=loop_continuous
loop_start=66027
loop_xfade=19078
lovel=0
pitch_keycenter=c#6
sample=Violins2_sul_tasto_FF_C#6.opus
</region>

<region>
end=328230
hikey=c#5
hivel=127
lokey=c5
loop_end=261699
loop_mode=loop_continuous
loop_start=66954
loop_xfade=19346
lovel=0
pitch_keycenter=c#5
sample=Violins2_sul_tasto_FF_C#5.opus
</region>

<region>
end=329075
hikey=c#4
hivel=127
lokey=c4
loop_end=262373
loop_mode=loop_continuous
loop_start=67127
loop_xfade=19396
lovel=0
pitch_keycenter=c#4
sample=Violins2_sul_tasto_FF_C#4.opus
</region>

<region>
end=309745
hikey=E7
hivel=127
lokey=a#6
loop_end=246961
loop_mode=loop_continuous
loop_start=63183
loop_xfade=18257
lovel=0
pitch_keycenter=B6
sample=Violins2_sul_tasto_FF_B6.opus
</region>

<region>
end=314866
hikey=b5
hivel=127
lokey=a#5
loop_end=251044
loop_mode=loop_continuous
loop_start=64228
loop_xfade=18558
lovel=0
pitch_keycenter=b5
sample=Violins2_sul_tasto_FF_B5.opus
</region>

<region>
end=333310
hikey=b4
hivel=127
lokey=a#4
loop_end=265750
loop_mode=loop_continuous
loop_start=67990
loop_xfade=19646
lovel=0
pitch_keycenter=b4
sample=Violins2_sul_tasto_FF_B4.opus
</region>

<region>
end=334979
hikey=b3
hivel=127
lokey=a#3
loop_end=267080
loop_mode=loop_continuous
loop_start=68331
loop_xfade=19744
lovel=0
pitch_keycenter=b3
sample=Violins2_sul_tasto_FF_B3.opus
</region>

<region>
end=332600
hikey=a6
hivel=127
lokey=g#6
loop_end=265184
loop_mode=loop_continuous
loop_start=67846
loop_xfade=19604
lovel=0
pitch_keycenter=a6
sample=Violins2_sul_tasto_FF_A6.opus
</region>

<region>
end=311116
hikey=a5
hivel=127
lokey=g#5
loop_end=248054
loop_mode=loop_continuous
loop_start=63463
loop_xfade=18337
lovel=0
pitch_keycenter=a5
sample=Violins2_sul_tasto_FF_A5.opus
</region>

<region>
end=325628
hikey=a4
hivel=127
lokey=g#4
loop_end=259625
loop_mode=loop_continuous
loop_start=66423
loop_xfade=19193
lovel=0
pitch_keycenter=a4
sample=Violins2_sul_tasto_FF_A4.opus
</region>

<region>
end=319037
hikey=a3
hivel=127
lokey=g#3
loop_end=254370
loop_mode=loop_continuous
loop_start=65079
loop_xfade=18804
lovel=0
pitch_keycenter=a3
sample=Violins2_sul_tasto_FF_A3.opus
</region>
</group>